<svg width="50" height="50" viewBox="0 0 50 50" fill="none" xmlns="http://www.w3.org/2000/svg">
<path d="M12.8596 16.0644C14.0612 14.7612 15.6552 14 17.5278 14C21.1759 14 23.5945 16.7495 24.0573 20.8684C24.2073 22.206 24.206 24.0918 24.2044 26.276C24.2042 26.5 24.2042 26.7272 24.2042 26.9572V35.1398H19.1874V29.0877C19.1874 29.0877 19.1772 23.9079 19.1465 22.9399C19.0119 18.7236 16.5938 16.0744 12.8591 16.0715C11.7323 17.3004 11.1285 18.8029 11.0395 21.1003C11.0273 21.4208 11.0303 22.5566 11.0344 24.0535C11.0365 24.8291 11.0389 25.7016 11.0395 26.608C11.0432 30.5528 11.0395 35.1407 11.0395 35.1407H6.02271V25.8266C6.02271 25.5074 6.01707 25.1856 6.01142 24.8624C6.00004 24.2124 5.98858 23.5574 6.02271 22.9088C6.07939 21.8276 6.26059 20.7647 6.74934 19.7774C7.8681 17.5153 10.1604 16.0588 12.6043 16.0588C12.6896 16.0588 12.7751 16.0609 12.8596 16.0643V16.0644Z" fill="#820AD1"/>
<path d="M43.9773 26.7329C44.0115 26.0843 44 25.4293 43.9887 24.7793C43.983 24.4562 43.9773 24.1343 43.9773 23.8152V14.501H38.9606C38.9606 14.501 38.9569 19.0889 38.9606 23.0337C38.9612 23.94 38.9636 24.8125 38.9657 25.5881C38.9697 27.0851 38.9728 28.2209 38.9606 28.5413C38.8716 30.8388 38.2678 32.3413 37.141 33.5702C33.4063 33.5675 30.9884 30.918 30.8537 26.7019C30.823 25.7338 30.81 23.3315 30.81 20.5492V14.4971L25.797 14.5018V22.6844C25.797 22.9144 25.7967 23.1416 25.7967 23.3656C25.7951 25.5499 25.7938 27.4356 25.9439 28.7733C26.4056 32.8922 28.8243 35.6416 32.4724 35.6416C34.345 35.6416 35.939 34.8804 37.1407 33.5772C37.2251 33.5806 37.3105 33.5826 37.3958 33.5826C39.8396 33.5826 42.132 32.1262 43.2508 29.8642C43.7395 28.8767 43.9207 27.8139 43.9774 26.7327L43.9773 26.7329Z" fill="#820AD1"/>
</svg>
