<svg width="56" height="57" viewBox="0 0 56 57" fill="none" xmlns="http://www.w3.org/2000/svg">
<path d="M31.452 0.0700588C31.3643 0.091959 30.915 0.168612 30.4657 0.234312C27.6383 0.694221 24.8328 2.43531 23.0027 4.86626C22.1589 5.98319 21.337 7.66952 20.9643 9.04925C20.7013 10.0348 20.6685 10.3304 20.6685 12.0606C20.6685 13.7907 20.7013 14.0864 20.9643 15.0719C21.863 18.4336 24.1972 21.3026 27.2876 22.8685C28.2082 23.3393 29.7424 23.8321 30.8164 23.9963C32.0438 24.1934 34.4438 24.0839 35.6164 23.7773C37.7205 23.2189 39.4082 22.2771 41.0082 20.7332C42.6191 19.1892 43.7698 17.2291 44.3506 15.0719C44.6137 14.0864 44.6465 13.7907 44.6465 12.0606C44.6465 10.3414 44.6137 10.0348 44.3506 9.0821C43.1561 4.61441 39.6274 1.24173 35.1342 0.278112C34.4219 0.124809 31.8356 -0.0284939 31.452 0.0700588ZM35.1233 2.53386C39.3205 3.61794 42.2794 7.27531 42.4876 11.6226C42.8274 18.7621 35.7369 23.8321 29.0191 21.2478C26.0274 20.0871 23.6602 17.2838 23.0027 14.0864C21.8849 8.6879 25.4356 3.39893 30.8712 2.36961C32.0219 2.1506 33.9616 2.22725 35.1233 2.53386Z" fill="#820AD1"/>
<path d="M31.8684 4.58156C31.463 4.83341 31.3424 5.16192 31.3424 6.02699C31.3424 6.76066 31.3314 6.78256 31.0027 6.91396C30.8164 6.99061 30.4328 7.28627 30.1479 7.57097C28.5369 9.12591 28.9643 11.8087 30.9808 12.8161C31.2328 12.9366 31.7808 13.0899 32.1862 13.1556C32.8109 13.2322 32.9862 13.3089 33.2383 13.5936C33.5671 13.9659 33.6109 14.3273 33.3698 14.7981C32.9753 15.5646 31.9671 15.5318 31.2328 14.7434C30.6082 14.0754 29.8739 13.9878 29.3588 14.5353C28.9862 14.9295 29.0082 15.5099 29.4136 16.0355C29.7314 16.4516 30.926 17.3167 31.178 17.3167C31.2767 17.3167 31.3314 17.5795 31.3534 18.2584C31.3972 19.1235 31.4191 19.2111 31.704 19.4629C31.9123 19.6381 32.1424 19.7257 32.4383 19.7257C32.7342 19.7257 32.9643 19.6381 33.1725 19.4629C33.4575 19.222 33.4794 19.1235 33.5123 18.2694C33.5561 17.4043 33.578 17.3276 33.7972 17.2729C33.9397 17.24 34.2794 17.0101 34.5643 16.7582C36.6903 14.8857 35.704 11.4802 32.9095 11.0531C31.978 10.9108 31.6931 10.7794 31.4958 10.3961C31.2438 9.91432 31.3095 9.55297 31.715 9.14781C32.252 8.61125 32.8219 8.67695 33.6767 9.38871C34.4547 10.0348 35.6712 9.32301 35.452 8.33749C35.3643 7.95423 34.6958 7.31912 34.0273 7.00156L33.5342 6.76066V6.00509C33.5342 5.17287 33.3479 4.71296 32.9095 4.51586C32.5479 4.3516 32.2191 4.3735 31.8684 4.58156Z" fill="#820AD1"/>
<path d="M50.4 23.5364C49.5452 23.8211 48.9863 24.2372 47.726 25.5513C47.1233 26.1645 45.5781 27.7523 44.2959 29.0663L41.9616 31.4644L41.4685 31.0045C40.8329 30.4132 39.9562 30.019 39.0356 29.8985C38.6301 29.8547 35.5945 29.8109 32.2849 29.7999H26.2685L25.2493 29.4714C23.7041 28.9787 22.5096 28.8035 20.7123 28.8035C17.6219 28.8035 15.1342 29.5152 12.7342 31.0702C11.5068 31.8695 9.85205 33.523 9.06301 34.7385L8.44932 35.6802L7.68219 35.735C6.37808 35.8335 6.16986 35.9868 2.93699 39.2172L0 42.1409V42.6555V43.1811L6.31233 49.5542C9.7863 53.0473 12.7342 55.971 12.8658 56.0477C13.1726 56.2229 13.5342 56.2229 13.8959 56.0367C14.0603 55.9491 15.5068 54.5584 17.1068 52.9378C20.4384 49.587 20.4384 49.5761 20.3726 47.9992L20.3288 47.1561L21.1616 46.3896C22.4877 45.1522 21.7973 45.2398 30.7945 45.2398C35.5397 45.2398 38.8822 45.196 39.4411 45.1303C41.2822 44.8894 43.1562 44.09 44.5699 42.9183C45.3808 42.2504 55.4192 30.2161 55.737 29.5262C55.9671 29.0553 56 28.8035 56 27.7194C56 26.5587 55.9781 26.4054 55.6932 25.8031C55.2658 24.9161 54.5205 24.1715 53.611 23.7445C52.6685 23.3065 51.3644 23.2189 50.4 23.5364ZM52.7562 25.7812C53.4685 26.1864 53.8411 26.7448 53.8959 27.4785C53.9288 27.8946 53.8849 28.245 53.7753 28.5078C53.5671 29.0006 44.3288 40.0932 43.3425 41.0349C42.5425 41.8014 41.5233 42.3708 40.3288 42.7322C39.5178 42.984 39.4411 42.984 30.9589 43.0497C25.0411 43.0935 22.3014 43.1483 22.0603 43.2359C21.3041 43.4987 20.3836 44.0791 19.6493 44.747L18.8822 45.4478L14.5973 41.1553L10.3014 36.8629L10.8274 36.0416C12.9315 32.7784 16.4164 30.9935 20.6904 30.9935C22.3671 30.9935 23.4192 31.1578 24.7233 31.6286L25.589 31.9352L32.3288 31.99C39.0466 32.0447 39.0685 32.0447 39.5288 32.2857C41.1068 33.1288 41.1068 35.3408 39.5288 36.1839C39.0795 36.4248 38.9918 36.4248 34.0493 36.4796L29.0192 36.5343L28.7562 36.841C28.3836 37.279 28.4055 37.8046 28.811 38.2535L29.1288 38.6149L33.6986 38.6477C38.5863 38.6806 39.4411 38.6258 40.3726 38.1988C41.8959 37.498 43.0795 35.5817 42.9479 34.0267C42.9151 33.6654 43.0904 33.4573 46.6082 29.8328C48.789 27.5989 50.4986 25.9236 50.7616 25.7703C51.3644 25.4418 52.1753 25.4418 52.7562 25.7812ZM13.2822 42.9074L18.1918 47.8131V48.3059V48.7986L15.8466 51.1201C14.5534 52.4012 13.4575 53.4525 13.4027 53.4525C13.3589 53.4525 10.8932 51.0325 7.94521 48.0868L2.57534 42.7212L5.00822 40.2903L7.4411 37.8703L7.90137 37.936C8.35069 37.9907 8.60274 38.2316 13.2822 42.9074Z" fill="#820AD1"/>
<path d="M24.4276 36.4249C23.8468 36.7424 23.7591 37.5746 24.2413 38.0893C24.7125 38.593 25.6111 38.4944 25.918 37.8922C26.455 36.8519 25.4468 35.8664 24.4276 36.4249Z" fill="#820AD1"/>
</svg>
