<svg width="22" height="15" viewBox="0 0 22 15" fill="none" xmlns="http://www.w3.org/2000/svg">
<path d="M20.8389 6.11108H1.16111C0.519847 6.11108 0 6.63093 0 7.27219V7.39442C0 8.03568 0.519847 8.55553 1.16111 8.55553H20.8389C21.4802 8.55553 22 8.03568 22 7.39442V7.27219C22 6.63093 21.4802 6.11108 20.8389 6.11108Z" fill="#820AD1"/>
<path d="M20.8389 12.2222H1.16111C0.519847 12.2222 0 12.742 0 13.3833V13.5055C0 14.1468 0.519847 14.6666 1.16111 14.6666H20.8389C21.4802 14.6666 22 14.1468 22 13.5055V13.3833C22 12.742 21.4802 12.2222 20.8389 12.2222Z" fill="#820AD1"/>
<path d="M20.8389 0H1.16111C0.519847 0 0 0.519847 0 1.16111V1.28333C0 1.9246 0.519847 2.44444 1.16111 2.44444H20.8389C21.4802 2.44444 22 1.9246 22 1.28333V1.16111C22 0.519847 21.4802 0 20.8389 0Z" fill="#820AD1"/>
</svg>
