<svg width="18" height="20" viewBox="0 0 18 20" fill="none" xmlns="http://www.w3.org/2000/svg">
<path fill-rule="evenodd" clip-rule="evenodd" d="M8.98885 0C11.3911 0 13.3755 1.83039 13.6202 4.1714L13.6885 4.1722C15.0211 4.1722 16.6413 5.05722 17.1881 7.53952L17.9133 13.152C18.1733 14.9634 17.848 16.4164 16.9446 17.4586C16.0458 18.4952 14.6231 19.0439 12.8301 19.0439H5.15807C3.1886 19.0439 1.81649 18.5614 0.96271 17.5698C0.105257 16.5754 -0.18148 15.0838 0.110771 13.1373L0.823937 7.59926C1.29264 5.05998 3.00663 4.1722 4.3337 4.1722C4.44827 3.11576 4.92463 2.11073 5.68035 1.3574C6.54884 0.494437 7.74633 0 8.96955 0H8.98885ZM13.6885 5.55074H4.3337C3.92841 5.55074 2.57377 5.71433 2.18502 7.81339L1.47553 13.3276C1.24485 14.8743 1.42314 15.9937 2.00673 16.671C2.58296 17.34 3.6141 17.6654 5.15807 17.6654H12.8301C13.7933 17.6654 15.1084 17.4733 15.9024 16.5561C16.5329 15.8292 16.7498 14.7465 16.5476 13.3377L15.8317 7.77571C15.5265 6.40544 14.7215 5.55074 13.6885 5.55074ZM11.6692 8.10941C12.0497 8.10941 12.3796 8.4182 12.3796 8.79868C12.3796 9.17916 12.092 9.48795 11.7115 9.48795H11.6692C11.2887 9.48795 10.9799 9.17916 10.9799 8.79868C10.9799 8.4182 11.2887 8.10941 11.6692 8.10941ZM6.31118 8.10941C6.69165 8.10941 7.02158 8.4182 7.02158 8.79868C7.02158 9.17916 6.73301 9.48795 6.35253 9.48795H6.31118C5.9307 9.48795 5.6219 9.17916 5.6219 8.79868C5.6219 8.4182 5.9307 8.10941 6.31118 8.10941ZM8.9861 1.37854H8.97231C8.10751 1.37854 7.26476 1.72685 6.6536 2.33433C6.15577 2.82993 5.83017 3.48146 5.72485 4.17177L12.2309 4.17203C11.9947 2.59292 10.6292 1.37854 8.9861 1.37854Z" fill="white"/>
</svg>
