<svg width="14" height="14" viewBox="0 0 14 14" fill="none" xmlns="http://www.w3.org/2000/svg">
<path fill-rule="evenodd" clip-rule="evenodd" d="M5.55375 5.01003H7.95871V6.20798C8.30515 5.51899 9.19357 4.89995 10.5282 4.89995C13.0866 4.89995 13.694 6.27144 13.694 8.78778V13.4481H11.1038V9.36086C11.1038 7.92785 10.7574 7.11972 9.87543 7.11972C8.65223 7.11972 8.14391 7.99066 8.14391 9.36021V13.4481H5.55375V5.01003ZM1.11226 13.3381H3.70243V4.89995H1.11226V13.3381ZM4.07347 2.14854C4.07356 2.36565 4.03051 2.58061 3.9468 2.78092C3.86309 2.98124 3.74041 3.16293 3.58587 3.31541C3.27272 3.62664 2.84884 3.80084 2.40734 3.79977C1.96662 3.79948 1.54373 3.62571 1.23011 3.31606C1.07614 3.16305 0.953865 2.98117 0.870305 2.78082C0.786745 2.58048 0.743539 2.36562 0.743164 2.14854C0.743164 1.71016 0.918 1.29055 1.23076 0.981028C1.5441 0.670958 1.96717 0.497121 2.40799 0.497315C2.84961 0.497315 3.27311 0.671503 3.58587 0.981028C3.89798 1.29055 4.07347 1.71016 4.07347 2.14854Z" fill="white"/>
</svg>
