<svg width="14" height="9" viewBox="0 0 14 9" fill="none" xmlns="http://www.w3.org/2000/svg">
<path fill-rule="evenodd" clip-rule="evenodd" d="M-0.000488281 4.49999C-0.000488281 4.36738 0.0521901 4.24021 0.145958 4.14644C0.239726 4.05267 0.366903 3.99999 0.499512 3.99999H12.2925L9.14551 0.853991C9.05163 0.760104 8.99888 0.632766 8.99888 0.499991C8.99888 0.367215 9.05163 0.239877 9.14551 0.145991C9.2394 0.052104 9.36674 -0.000640866 9.49951 -0.000640869C9.63229 -0.000640872 9.75963 0.052104 9.85351 0.145991L13.8535 4.14599C13.9001 4.19244 13.937 4.24761 13.9622 4.30836C13.9874 4.3691 14.0004 4.43422 14.0004 4.49999C14.0004 4.56576 13.9874 4.63088 13.9622 4.69162C13.937 4.75237 13.9001 4.80754 13.8535 4.85399L9.85351 8.85399C9.75963 8.94788 9.63229 9.00062 9.49951 9.00062C9.36674 9.00062 9.2394 8.94788 9.14551 8.85399C9.05163 8.7601 8.99888 8.63277 8.99888 8.49999C8.99888 8.36722 9.05163 8.23988 9.14551 8.14599L12.2925 4.99999H0.499512C0.366903 4.99999 0.239726 4.94731 0.145958 4.85354C0.0521901 4.75978 -0.000488281 4.6326 -0.000488281 4.49999Z" fill="white"/>
</svg>
