<svg width="15" height="28" viewBox="0 0 15 28" fill="none" xmlns="http://www.w3.org/2000/svg">
<path d="M2.23595 0.598589C1.47817 0.781172 0.720387 1.37188 0.354932 2.06462C-0.0212712 2.78421 0.000226139 1.91963 0.000226139 14.2601C0.000226139 26.5952 -0.0212712 25.736 0.354932 26.4502C0.747259 27.202 1.58566 27.8142 2.40255 27.9484C2.66052 27.9914 4.18683 28.0075 7.7124 27.9968L12.6568 27.9807L13.0061 27.8572C13.9681 27.5188 14.7367 26.6596 14.9355 25.7091C15.0215 25.3064 15.0215 3.21382 14.9355 2.81107C14.7367 1.86056 14.0004 1.0282 13.0437 0.67914L12.6568 0.539518L7.60491 0.528778C3.38068 0.523407 2.49929 0.534147 2.23595 0.598589ZM12.4902 1.82834C12.8664 1.925 13.2265 2.16665 13.4414 2.46201C13.78 2.92921 13.7585 2.14517 13.7585 14.2601C13.7585 26.375 13.78 25.591 13.4414 26.0582C13.3501 26.1817 13.1727 26.3535 13.0384 26.4448C12.5493 26.7831 12.6514 26.7778 7.35769 26.7617L2.55304 26.7455L2.25207 26.6059C1.8705 26.4287 1.58028 26.1387 1.40293 25.7575L1.2632 25.4567V14.2601V3.06346L1.40293 2.76273C1.63402 2.27406 2.05322 1.925 2.56379 1.80686C2.67665 1.78001 4.8855 1.75853 7.47055 1.75316C11.5067 1.74779 12.2215 1.75853 12.4902 1.82834Z" fill="white"/>
<path d="M5.25625 3.1439C4.94991 3.38555 4.92841 3.81516 5.21863 4.08903L5.37986 4.24477L7.42211 4.26088C9.67395 4.27699 9.7492 4.26625 9.9158 3.94404C10.0555 3.68091 10.0179 3.42314 9.81369 3.21908L9.63096 3.0365H7.5081C5.48197 3.0365 5.38523 3.04187 5.25625 3.1439Z" fill="white"/>
<path d="M7.01391 23.1208C6.41736 23.4054 6.13789 23.9908 6.30987 24.5815C6.47648 25.1453 6.91717 25.4836 7.48685 25.4836C8.15327 25.4836 8.64771 25.054 8.73907 24.3935C8.86806 23.4806 7.84156 22.7234 7.01391 23.1208Z" fill="white"/>
</svg>
