<svg width="50" height="50" viewBox="0 0 50 50" fill="none" xmlns="http://www.w3.org/2000/svg">
<path d="M3.02766 0.316223C1.94499 0.574711 0.881471 1.47463 0.354505 2.58517L0.047906 3.22661L0.0191624 19.0901L0 34.9632H0.814403H1.62881V20.7464V6.52951H11.8807H22.1326L22.1518 8.8942L22.1805 11.2685H22.947H23.7135L23.7422 7.63048C23.7518 5.45727 23.7231 3.79145 23.6656 3.46595C23.3877 1.96289 22.2476 0.737465 20.7529 0.344944C20.3601 0.239635 18.6929 0.210915 11.8328 0.220486C7.12842 0.230061 3.23845 0.268356 3.02766 0.316223ZM21.0403 2.17351C21.3278 2.35541 21.6152 2.64262 21.7973 2.92982C22.0464 3.34149 22.0847 3.51382 22.123 4.20312L22.1518 4.99773H11.8903H1.62881V4.27971C1.62881 3.18831 2.02164 2.51816 2.92227 2.04905C3.30552 1.84801 3.363 1.84801 11.9382 1.86715L20.5709 1.8863L21.0403 2.17351Z" fill="#820AD1"/>
<path d="M28.1015 5.13176C26.7601 5.55301 25.6678 6.79758 25.39 8.2049C25.3325 8.52083 25.2942 9.33459 25.3133 10.0239L25.3421 11.2685L36.3796 11.2972L47.4268 11.3163L47.4459 25.514L47.4747 39.7022L48.2699 39.7309L49.0556 39.7596V24.1259C49.0556 10.3015 49.0364 8.41552 48.9023 7.91769C48.6053 6.76886 47.8483 5.85936 46.7752 5.35196L46.1333 5.0456L37.3186 5.02645C30.2189 5.01688 28.4272 5.03603 28.1015 5.13176ZM46.1333 6.788C47.0244 7.26669 47.4268 7.96556 47.4268 9.01866V9.68881H37.1749H26.923V9.03781C26.9326 7.8411 27.5553 6.95076 28.6476 6.61568C28.7817 6.57738 32.6813 6.54866 37.3186 6.55824L45.7501 6.57738L46.1333 6.788Z" fill="#820AD1"/>
<path d="M9.48535 10.5026V11.3259L10.2806 11.2972L11.0663 11.2685L11.095 10.4738L11.1237 9.68881H10.2998H9.48535V10.5026Z" fill="#820AD1"/>
<path d="M12.6472 10.5026V11.3259L13.4425 11.2972L14.2281 11.2685L14.2569 10.4738L14.2856 9.68881H13.4616H12.6472V10.5026Z" fill="#820AD1"/>
<path d="M15.8091 10.5026V11.3259L16.6043 11.2972L17.39 11.2685L17.4187 10.4738L17.4475 9.68881H16.6235H15.8091V10.5026Z" fill="#820AD1"/>
<path d="M23.4739 12.9056C23.3398 12.9247 22.9374 12.9917 22.5637 13.0492C21.1361 13.2789 19.6606 13.8821 18.3001 14.7916C17.3132 15.4521 15.7898 17.0222 15.1574 18.037C11.8136 23.4461 13.5861 30.4253 19.1145 33.575C21.7685 35.0781 25.256 35.394 28.1304 34.3792C29.788 33.7952 31.1197 32.9623 32.3366 31.756C35.9966 28.0893 36.6385 22.4696 33.8983 18.037C33.2755 17.0318 31.6659 15.366 30.7078 14.7437C28.8298 13.5278 27.1052 12.9821 24.9111 12.9056C24.25 12.8768 23.6081 12.8768 23.4739 12.9056ZM26.9711 14.7533C29.9029 15.5479 32.4132 17.8551 33.4384 20.6793C35.3738 26.031 32.2599 31.7752 26.6645 33.1634C25.4764 33.4602 23.5793 33.4602 22.3913 33.1634C20.5517 32.7038 18.9708 31.8039 17.7156 30.4923C16.0389 28.7308 15.1862 26.749 15.0712 24.3365C14.8508 19.6645 18.051 15.5862 22.7074 14.6097C23.6656 14.4086 25.9938 14.4948 26.9711 14.7533Z" fill="#820AD1"/>
<path d="M23.7613 16.8116V17.6158L23.311 17.7307C20.4271 18.4487 19.6318 22.192 21.9888 23.9727C22.6403 24.4705 23.4835 24.7194 24.5183 24.7194C25.4955 24.7194 25.9746 24.9013 26.4153 25.4279C26.7028 25.7725 26.9231 26.3374 26.9231 26.6916C26.9231 27.3617 26.4249 28.1276 25.7638 28.4627C25.2464 28.7212 23.8092 28.7212 23.2919 28.4627C22.602 28.1085 22.1325 27.3617 22.1325 26.6054V26.3469H21.3565H20.5708L20.6187 27.0171C20.6762 27.8404 21.0211 28.568 21.6247 29.1712C22.1134 29.669 22.4296 29.8509 23.1865 30.0902L23.7134 30.253L23.7422 31.0284L23.7709 31.8039H24.5278H25.2848L25.3135 31.0189L25.3422 30.2338L25.7734 30.1285C26.8082 29.8605 27.6609 29.1616 28.14 28.1851C28.3795 27.6968 28.4082 27.5341 28.4082 26.682C28.4082 25.83 28.3795 25.6672 28.14 25.179C27.795 24.4705 26.9136 23.6472 26.2141 23.3887C25.8692 23.2642 25.3327 23.1685 24.6524 23.1302C23.3685 23.0536 22.899 22.8621 22.5158 22.259C21.9792 21.4069 22.0655 20.4687 22.7457 19.789C23.2056 19.339 23.6847 19.1667 24.5278 19.1667C25.371 19.1667 25.85 19.339 26.3099 19.789C26.6932 20.1815 26.9231 20.7464 26.9231 21.3112C26.9231 21.5601 26.9327 21.5601 27.6992 21.5601H28.4753L28.437 20.9091C28.3507 19.4061 27.2489 18.104 25.7542 17.7307L25.2943 17.6158V16.8116V16.0074H24.5278H23.7613V16.8116Z" fill="#820AD1"/>
<path d="M6.42903 19.3199C4.77148 21.5218 3.31514 23.4653 3.19058 23.628L2.97021 23.9248L6.22783 28.2617L9.48544 32.5985V29.8605V27.1128H10.6831H11.8807V26.2991V25.4853H9.91659H7.95244V26.6342C7.95244 27.266 7.9237 27.783 7.88538 27.783C7.83747 27.7734 7.16678 26.9214 6.39071 25.8683C5.45175 24.6141 4.99185 23.9152 5.03976 23.8386C5.07808 23.7716 5.73918 22.8813 6.50568 21.8569L7.90454 19.9996L7.93328 21.158L7.96203 22.326H9.91659H11.8807V21.5601V20.7942H10.6831H9.48544L9.46628 18.0466L9.43753 15.3085L6.42903 19.3199Z" fill="#820AD1"/>
<path d="M39.5704 18.0466V20.7942H38.3727H37.175V21.5601V22.326H39.1392H41.0938L41.1225 21.158L41.1513 19.9996L42.5501 21.8569C43.3166 22.8813 43.9777 23.7716 44.016 23.8387C44.0639 23.9152 43.604 24.6141 42.6651 25.8683C41.889 26.9214 41.2183 27.7734 41.18 27.783C41.1321 27.783 41.1033 27.266 41.1033 26.6342V25.4853H39.1392H37.175V26.2991V27.1128H38.3727H39.5704V29.8605V32.5985L42.828 28.2617C44.8879 25.5236 46.0568 23.8865 45.9993 23.8195C45.961 23.7621 44.5526 21.8856 42.8759 19.6454C41.1992 17.4052 39.7716 15.5096 39.7045 15.433C39.5895 15.3181 39.5704 15.7106 39.5704 18.0466Z" fill="#820AD1"/>
<path d="M0 38.7735C0 41.1573 0.0862309 41.7318 0.546129 42.5168C0.919796 43.1487 1.60006 43.7614 2.29949 44.0965L2.92227 44.3932H11.8807H20.8391L21.3948 44.1347C22.5254 43.6082 23.4356 42.4211 23.6656 41.1956C23.7135 40.918 23.7614 39.7596 23.7614 38.6395V36.5907H11.8807H0V38.7735ZM22.1326 39.5777C22.1326 40.8414 22.1039 41.0999 21.9314 41.4733C21.6919 41.9998 21.3374 42.3828 20.8391 42.6508L20.4559 42.8615H11.8807H3.30552L2.92227 42.6508C2.71148 42.5359 2.40488 42.3062 2.23242 42.1243C1.70546 41.5786 1.62881 41.2627 1.62881 39.6064V38.1225H11.8807H22.1326V39.5777Z" fill="#820AD1"/>
<path d="M7.95239 40.5159V41.2818H11.8807H15.809V40.5159V39.75H11.8807H7.95239V40.5159Z" fill="#820AD1"/>
<path d="M25.3134 41.3488C25.3422 45.9346 25.3517 46.1357 25.5434 46.6048C25.9937 47.7057 26.8177 48.5386 27.8524 48.9599L28.4081 49.1801H37.2229H46.0376L46.6795 48.8737C47.5801 48.4525 48.2125 47.8302 48.6532 46.9398L49.0077 46.2218L49.0365 43.7518L49.0652 41.2818H37.9989H26.9231V38.9363V36.5907H26.0991H25.2847L25.3134 41.3488ZM47.4268 44.3933C47.4268 45.724 47.4077 45.925 47.2256 46.2888C46.9478 46.8441 46.6891 47.1026 46.1621 47.3707L45.7022 47.6004L37.0983 47.5813L28.4848 47.5526L28.0153 47.2653C27.7279 47.0834 27.4404 46.7962 27.2584 46.509C26.971 46.0399 26.971 46.0208 26.9422 44.4698L26.9135 42.9093H37.1654H47.4268V44.3933Z" fill="#820AD1"/>
<path d="M33.2468 45.2549V46.0686H37.1751H41.1034V45.2549V44.4411H37.1751H33.2468V45.2549Z" fill="#820AD1"/>
<path d="M31.6179 37.3566V38.1225H32.4323H33.2467V37.3566V36.5907H32.4323H31.6179V37.3566Z" fill="#820AD1"/>
<path d="M34.7798 37.3566V38.1225H35.5942H36.4086V37.3566V36.5907H35.5942H34.7798V37.3566Z" fill="#820AD1"/>
<path d="M37.9414 37.3566V38.1225H38.7558H39.5702V37.3566V36.5907H38.7558H37.9414V37.3566Z" fill="#820AD1"/>
</svg>
