<svg width="22" height="17" viewBox="0 0 22 17" fill="none" xmlns="http://www.w3.org/2000/svg">
<path d="M2.33512 0.549505C1.44997 0.71995 0.705999 1.26227 0.304148 2.02669C-0.0108156 2.63616 4.52063e-05 2.34692 4.52063e-05 8.76184C4.52063e-05 15.1768 -0.0108156 14.8772 0.304148 15.5022C0.624543 16.1168 1.18387 16.592 1.92784 16.8709L2.28082 17H10.9695H19.6581L20.0274 16.8812C20.956 16.5713 21.6674 15.843 21.9226 14.9288C22.0258 14.5621 22.0258 2.96156 21.9226 2.59484C21.6728 1.7013 21.0103 1.00402 20.0871 0.663134L19.7124 0.52368L11.1324 0.518515C6.41336 0.51335 2.45459 0.528845 2.33512 0.549505ZM19.8048 1.74778C20.212 1.92856 20.5704 2.28494 20.7171 2.64649C20.8257 2.93057 20.8257 2.97189 20.8148 8.82899L20.7985 14.7274L20.6682 14.9805C20.489 15.3214 20.174 15.6106 19.7993 15.7811L19.4952 15.9154H10.9966H2.49803L2.1885 15.7759C1.78122 15.5951 1.42281 15.2387 1.28162 14.8772C1.16758 14.5983 1.16758 14.526 1.16758 8.76184C1.16758 3.16299 1.17301 2.91507 1.27076 2.66715C1.47169 2.16098 1.90069 1.79943 2.46545 1.65481C2.66095 1.60316 4.57245 1.59283 11.1052 1.598L19.4952 1.60833L19.8048 1.74778Z" fill="white"/>
<path d="M6.02794 4.92431C4.84411 5.08442 3.91551 5.84884 3.57882 6.92832C3.4322 7.39834 3.44849 8.06979 3.62227 8.5398C3.69829 8.74123 3.83405 9.00981 3.92094 9.13377L4.08385 9.36103L3.83405 9.44884C3.24214 9.64511 2.68824 10.1668 2.46559 10.7246C1.98228 11.9487 2.72625 13.3071 4.06756 13.648C4.49656 13.7564 8.24355 13.7513 8.68884 13.6376C9.34049 13.4775 9.87267 13.054 10.1876 12.4549C10.3614 12.1088 10.3723 12.0727 10.3723 11.5252C10.3723 10.9673 10.3668 10.9415 10.1713 10.5645C9.92154 10.0841 9.55771 9.74324 9.05268 9.52631C8.85175 9.43851 8.68341 9.36103 8.67255 9.35587C8.66712 9.3507 8.74857 9.20608 8.85175 9.0408C9.13956 8.58628 9.23188 8.25056 9.23188 7.65142C9.22645 6.6959 8.78116 5.88499 7.97746 5.37366C7.44528 5.0431 6.59813 4.84167 6.02794 4.92431ZM6.99998 6.13291C7.38554 6.2672 7.75481 6.60809 7.93944 6.9903C8.45533 8.05945 7.60276 9.29905 6.35376 9.29905C5.1645 9.29905 4.33908 8.16792 4.7355 7.08327C4.8604 6.74755 5.38172 6.24138 5.72927 6.11742C6.07681 5.99346 6.63614 5.99862 6.99998 6.13291ZM8.46619 10.4767C8.77573 10.5645 9.11241 10.9002 9.1993 11.2049C9.34592 11.6956 9.1287 12.2121 8.67255 12.4652L8.41732 12.6098L6.54383 12.6253C4.31193 12.646 4.20332 12.6356 3.82862 12.2793C3.253 11.7318 3.38876 10.8899 4.10557 10.549L4.39338 10.4147H6.31575C7.68421 10.4147 8.30871 10.4354 8.46619 10.4767Z" fill="white"/>
<path d="M13.0221 6.08635C12.7126 6.23097 12.6583 6.71648 12.9298 6.95923L13.071 7.08319L15.5636 7.09869C18.3494 7.11418 18.3168 7.11935 18.4688 6.76296C18.572 6.54087 18.496 6.28262 18.2896 6.12767C18.1539 6.02953 18.0779 6.02437 15.645 6.02953C14.0268 6.02953 13.0982 6.05019 13.0221 6.08635Z" fill="white"/>
<path d="M13.0762 8.27101C12.897 8.34332 12.7341 8.57575 12.7341 8.76169C12.7341 8.82366 12.7721 8.94246 12.821 9.0251C12.9785 9.32467 13.0382 9.32983 15.6448 9.32983C18.2786 9.32983 18.2949 9.32983 18.4578 8.99411C18.5067 8.90114 18.5447 8.79784 18.5447 8.76169C18.5447 8.72553 18.5067 8.62223 18.4578 8.52926C18.2949 8.19354 18.2786 8.19354 15.6285 8.19354C13.7279 8.1987 13.2174 8.2142 13.0762 8.27101Z" fill="white"/>
<path d="M13.1146 10.4508C12.6747 10.6057 12.6258 11.2617 13.0385 11.4425C13.1309 11.4838 13.9454 11.4993 15.6614 11.4993C18.0725 11.4993 18.154 11.4941 18.2897 11.396C18.4961 11.241 18.5721 10.9828 18.469 10.7607C18.3169 10.4095 18.3386 10.4146 15.6288 10.4198C14.293 10.4198 13.158 10.4353 13.1146 10.4508Z" fill="white"/>
</svg>
