<svg width="19" height="14" viewBox="0 0 19 14" fill="none" xmlns="http://www.w3.org/2000/svg">
<path d="M1.28348 0.0668068C0.971886 0.148378 0.738188 0.288215 0.500781 0.536813C0.259664 0.789296 0.111285 1.06509 0.0445139 1.40303C-0.014838 1.69824 -0.014838 12.3181 0.0445139 12.6055C0.181765 13.2697 0.701093 13.8136 1.33171 13.9534C1.60992 14.0155 17.3901 14.0155 17.6683 13.9534C18.2989 13.8136 18.8219 13.262 18.9555 12.6055C19.0148 12.3103 19.0148 1.69047 18.9555 1.40303C18.8182 0.734916 18.3026 0.194989 17.6683 0.0551529C17.3678 -0.0108814 1.53573 0.000772476 1.28348 0.0668068ZM13.4877 4.94944C11.5068 7.01981 9.84498 8.74446 9.78934 8.77554C9.65951 8.84546 9.34049 8.84546 9.21066 8.77554C9.15502 8.74446 7.49317 7.01981 5.5123 4.94944L1.9141 1.17773H9.5H17.0859L13.4877 4.94944ZM3.51659 9.51745L1.11656 12.0345V7.00427V1.97403L3.51659 4.49109L5.92034 7.00427L3.51659 9.51745ZM17.8834 7.01204V12.0345L15.4834 9.52133L13.0797 7.00427L15.4723 4.49886C16.7891 3.11991 17.8686 1.99345 17.8723 1.99345C17.8797 1.99345 17.8834 4.25414 17.8834 7.01204ZM7.56736 8.76388C8.3649 9.59125 8.46876 9.68448 8.73584 9.82431L9.0326 9.9758H9.49629C9.95998 9.9758 9.9674 9.9758 10.2567 9.8282C10.5275 9.69225 10.6128 9.61456 11.4364 8.76388L12.3229 7.84329L14.7044 10.337L17.0859 12.8308H9.5H1.9141L4.28817 10.3448C5.59391 8.97752 6.66966 7.85883 6.67708 7.85883C6.68821 7.85883 7.08883 8.26669 7.56736 8.76388Z" fill="white"/>
</svg>
