<svg width="49" height="55" viewBox="0 0 49 55" fill="none" xmlns="http://www.w3.org/2000/svg">
<path d="M14.2639 0.853558C13.9925 0.905704 13.9925 0.916134 14.1178 1.40631C14.1804 1.60447 14.2639 1.95906 14.3265 2.18851L14.4309 2.60568L26.5385 2.57439C38.5208 2.55353 38.646 2.55353 39.2096 2.76212C40.2952 3.16886 40.9527 4.22222 40.9527 5.54674V6.09949H31.1414H21.3301V6.98598V7.87247H31.1414H40.9527V21.5036V35.1451L37.8736 32.0684L34.805 28.9918L35.5565 26.0194L36.308 23.0471L37.2787 23.0158L38.239 22.9845V22.098V21.2115L36.7151 21.2428C34.805 21.2845 34.8885 21.2115 34.3875 23.2765L34.0222 24.7679L26.1523 24.7888L18.2824 24.8201L18.0319 25.1121C17.8962 25.2685 17.7814 25.5084 17.7814 25.6336C17.7814 25.7587 18.2093 27.5213 18.7103 29.555C19.4201 32.3396 19.6914 33.2991 19.8584 33.466C20.0776 33.685 20.1716 33.685 24.2526 33.7163L28.4277 33.7475L28.6782 34.1334C28.8139 34.342 29.1165 34.707 29.3566 34.9365C29.5967 35.1555 29.7845 35.3849 29.7845 35.4267C29.7845 35.4684 27.4883 35.5101 24.6701 35.5101H19.5558V36.3966V37.2831H25.6408H31.7155L34.0013 39.5671L36.2767 41.8511L35.8801 42.5603C35.6609 42.9566 35.3269 43.7284 35.1494 44.2707L34.8154 45.2615L23.6368 45.2928L12.4582 45.3136L12.4373 35.9586L12.406 26.5931L11.5502 26.5618L10.6838 26.5305V38.472C10.6838 49.7252 10.6943 50.4448 10.8717 51.0185C11.3518 52.5411 12.4895 53.6049 14.0969 54.0221C14.6084 54.1577 16.1635 54.1785 24.691 54.1785H34.6902V53.292V52.4055L24.5449 52.3847L14.3892 52.3534L13.9612 52.124C13.4393 51.8424 12.9488 51.3418 12.6983 50.8516C12.5417 50.5491 12.5 50.1528 12.4791 48.7866L12.4478 47.0866H23.5533H34.6589L34.7215 47.9522C34.8363 49.4228 35.3478 50.935 36.1514 52.2074C36.4228 52.6246 36.4646 52.781 36.4646 53.4276V54.1785H37.3518H38.239V53.1565C38.239 52.1344 38.239 52.124 37.8215 51.4773C36.8925 50.0381 36.5794 49.1516 36.4959 47.6602C36.3915 45.8768 36.6942 44.7296 37.7275 42.9045C38.0511 42.3309 38.239 41.8824 38.239 41.6634C38.239 41.3401 37.8736 40.9542 34.137 37.1892C29.8576 32.8819 29.7845 32.7985 29.7845 31.9433C29.7845 31.3905 30.1185 30.7126 30.5882 30.3059C31.298 29.6697 32.2269 29.5445 33.0724 29.9513C33.2498 30.0451 35.5461 32.2666 38.1868 34.8948L42.988 39.6818L43.6143 39.0561L44.2301 38.4303L43.4786 37.669L42.7271 36.918V20.9508C42.7271 10.6884 42.6853 4.77497 42.6227 4.42038C42.2887 2.65783 40.8483 1.21858 39.074 0.884846C38.5416 0.780552 14.7858 0.749264 14.2639 0.853558ZM23.2402 26.7703C23.2715 26.9059 23.3341 27.3231 23.3655 27.7194L23.4385 28.4286L21.8416 28.3973L20.2446 28.366L20.0568 27.636C19.7541 26.447 19.6288 26.5409 21.5284 26.5409C23.1567 26.5409 23.188 26.5409 23.2402 26.7703ZM28.2711 27.2397C28.1458 28.5329 28.292 28.4182 26.7055 28.4182C25.9331 28.4182 25.286 28.3869 25.2547 28.3347C25.2338 28.293 25.1816 27.8759 25.1398 27.3961L25.0563 26.5409H26.7055H28.3442L28.2711 27.2397ZM33.5003 26.7703C33.469 26.9059 33.3855 27.2605 33.3229 27.563C33.2185 27.9801 33.1559 28.0949 33.0411 28.0532C32.3939 27.8028 31.2667 27.9071 30.3795 28.2826C30.1707 28.3765 29.9724 28.4286 29.9515 28.4077C29.9098 28.366 30.0768 26.8851 30.1499 26.6661C30.1812 26.5722 30.63 26.5409 31.8825 26.5409H33.5629L33.5003 26.7703ZM23.7725 30.8273C23.8978 32.0789 24.0335 31.9641 22.4887 31.9641H21.1423L20.9753 31.2549C20.8813 30.8691 20.7769 30.4727 20.7456 30.3685C20.6934 30.2016 20.8083 30.1912 22.1964 30.1912H23.6995L23.7725 30.8273ZM27.864 30.577C27.8327 30.7961 27.7805 31.1924 27.7388 31.4635L27.6762 31.9641H26.7055H25.7348L25.6722 31.6721C25.6408 31.5157 25.5887 31.1194 25.5469 30.7856L25.4843 30.1912H26.7055H27.9267L27.864 30.577Z" fill="#820AD1"/>
<path d="M8.84676 3.60688C7.93869 3.75289 6.60269 4.2222 5.70506 4.69152C1.8536 6.71481 -0.359157 10.8239 0.0479072 15.1417C0.173158 16.4871 0.465409 17.5091 1.08122 18.7711C2.4381 21.5661 4.78655 23.5268 7.81344 24.4133C8.98245 24.7471 11.07 24.8722 12.3225 24.6636C17.4995 23.8293 21.3301 19.3447 21.3301 14.13C21.3301 8.99882 17.6665 4.60809 12.5834 3.63816C11.7484 3.48172 9.70264 3.46087 8.84676 3.60688ZM13.0635 5.56758C16.0069 6.42278 18.2927 8.69637 19.2008 11.6791C19.4617 12.5135 19.4931 12.7742 19.4931 14.13C19.4931 15.4858 19.4617 15.7466 19.2008 16.5809C18.2927 19.5637 16.0069 21.8477 13.0635 22.6925C11.9885 22.9949 10.0575 23.0784 8.95113 22.8489C5.71549 22.2023 3.06436 19.7931 2.13542 16.6748C1.69704 15.1938 1.67616 13.181 2.08323 11.7522C3.01217 8.50864 5.80943 5.9639 9.09726 5.36943C9.96357 5.21299 12.2076 5.32771 13.0635 5.56758Z" fill="#820AD1"/>
<path d="M9.74431 8.31049V8.75895L9.13894 8.93625C7.93862 9.29084 7.13493 10.3442 7.14536 11.5749C7.14536 13.108 8.09518 14.1613 9.713 14.4325C10.0679 14.4951 10.6837 14.5994 11.0594 14.6619C11.9362 14.8079 12.3641 15.1521 12.385 15.7153C12.3954 16.2159 12.1241 16.6018 11.6544 16.7269C11.4352 16.7895 10.5167 16.8417 9.61906 16.8417H7.96993V17.7281V18.6146H8.85712H9.74431V19.0318V19.449H10.6211H11.5083L11.5396 19.0109C11.5709 18.5938 11.5918 18.5625 11.9675 18.4895C13.1574 18.2392 14.0341 17.2901 14.1803 16.0699C14.2638 15.392 14.1176 14.8184 13.6793 14.1718C13.1574 13.3896 12.6459 13.1393 10.9446 12.8368C9.58775 12.5865 9.4625 12.5552 9.18069 12.2423C8.93018 11.9607 8.89887 11.846 8.94062 11.481C8.98237 11.1785 9.08675 10.9804 9.2955 10.8239C9.57731 10.5945 9.67125 10.5841 11.4456 10.5841H13.2931V9.69759V8.8111H12.4059H11.5187V8.34178V7.87246H10.6315H9.74431V8.31049Z" fill="#820AD1"/>
<path d="M25.8181 17.4883V19.0735L25.244 18.5103L24.6699 17.9367L24.0228 18.5938L23.3652 19.2404L24.6699 20.544C26.0164 21.8894 26.4652 22.2127 26.8931 22.1084C27.0288 22.0667 27.7803 21.3992 28.5631 20.6171L29.9931 19.1882L29.3668 18.5625L28.7406 17.9472L28.1665 18.5103L27.5924 19.0735V17.4883V15.903H26.7052H25.8181V17.4883Z" fill="#820AD1"/>
<path d="M44.7414 29.2838L44.1047 29.8157L44.4074 30.1912C45.6808 31.7556 45.9626 32.1519 46.3175 32.8506C46.5262 33.2887 46.8081 34.0083 46.9333 34.4463C47.1525 35.2389 47.1525 35.3954 47.1942 44.7087L47.2256 54.1785H48.1128H48.9999L48.9582 44.6149C48.9269 35.1555 48.9269 35.0303 48.6973 34.1751C48.4154 33.1009 47.9771 32.058 47.4656 31.2654C47.0377 30.5875 45.5556 28.7311 45.4512 28.7415C45.4199 28.7415 45.0963 28.9814 44.7414 29.2838Z" fill="#820AD1"/>
<path d="M21.8624 38.2217C21.0796 38.399 20.4951 39.1186 20.4951 39.9112C20.4951 40.464 20.5995 40.7351 20.9544 41.121C21.7059 41.9554 23.0836 41.8407 23.7099 40.902C24.5762 39.5984 23.3863 37.8879 21.8624 38.2217Z" fill="#820AD1"/>
<path d="M30.7761 38.2217C30.2959 38.326 30.0246 38.5033 29.7114 38.9205C29.4609 39.2438 29.4192 39.4002 29.4192 39.9425C29.4192 40.4849 29.4609 40.6413 29.7114 40.9646C30.0976 41.4756 30.4943 41.6634 31.1414 41.6634C31.7885 41.6634 32.1851 41.4756 32.5713 40.9646C32.8218 40.6413 32.8636 40.4849 32.8636 39.9425C32.8636 39.4002 32.8218 39.2438 32.5713 38.9205C32.1225 38.326 31.4441 38.0653 30.7761 38.2217Z" fill="#820AD1"/>
<path d="M25.8181 49.7461V50.6326H26.7053H27.5925V49.7461V48.8596H26.7053H25.8181V49.7461Z" fill="#820AD1"/>
</svg>
