<svg width="23" height="27" viewBox="0 0 23 27" fill="none" xmlns="http://www.w3.org/2000/svg">
<path d="M2.42089 0.0458355C1.73926 0.0740013 1.6266 0.0965347 1.3224 0.242998C0.640782 0.569727 0.167589 1.22882 0.0549242 1.98931C-0.0183081 2.5301 -0.0183081 23.9252 0.0549242 24.466C0.201389 25.4968 0.973143 26.2573 2.00966 26.4094C2.52229 26.4827 13.0227 26.4827 13.5353 26.4094C14.3127 26.2968 14.9492 25.8292 15.2816 25.1307L15.4619 24.7476L15.4788 22.5563C15.49 20.6973 15.4844 20.3481 15.4112 20.241C15.2422 19.9819 14.7802 20.0157 14.6507 20.303C14.6112 20.3988 14.5887 21.0691 14.5887 22.4042C14.5887 24.5899 14.5718 24.7138 14.2169 25.08C13.7944 25.5137 14.3521 25.4799 7.76684 25.4799H1.87446L1.59843 25.3109C1.42944 25.2039 1.26044 25.0349 1.15341 24.8659L0.98441 24.5899L0.96751 13.284L0.956244 1.97804L1.11397 1.67384C1.28297 1.34711 1.70547 1.00349 1.93643 1.00349C2.00966 1.00912 2.12796 1.10489 2.25189 1.27388C2.80958 2.02311 3.45177 2.51883 4.17283 2.75543L4.58969 2.89062H7.77247H10.9553L11.3496 2.76106C12.0819 2.5132 12.6903 2.06254 13.2086 1.37528C13.4001 1.12178 13.524 1.00349 13.6085 1.00349C13.755 1.00349 14.1437 1.26262 14.3014 1.46541C14.5774 1.81467 14.5887 1.92171 14.5887 4.5299C14.5887 6.22551 14.6056 7.01416 14.6507 7.10993C14.7802 7.39159 15.2422 7.43102 15.4112 7.17189C15.4844 7.06486 15.49 6.65363 15.4788 4.3778L15.4619 1.70764L15.2816 1.32458C14.9549 0.64296 14.3296 0.169765 13.5691 0.0514679C13.1804 -0.0161304 3.78413 -0.0161304 2.42089 0.0458355ZM12.2791 1.05982C12.1889 1.22882 11.6707 1.62314 11.344 1.76961C10.8313 1.99494 10.5215 2.01747 7.74994 2.01747C4.84882 2.01747 4.58969 1.99494 4.04326 1.69638C3.73907 1.53301 3.20954 1.08799 3.20954 0.997854C3.20954 0.969688 5.07978 0.947155 7.77247 0.947155C12.3298 0.947155 12.341 0.947155 12.2791 1.05982Z" fill="white"/>
<path d="M19.7377 6.91827C19.4898 7.01967 19.4335 7.18867 19.4335 7.80269V8.38292H17.276H15.1128L14.7692 8.55755C14.403 8.73781 14.2115 8.92934 14.0087 9.30677C13.9129 9.49267 13.8848 9.6335 13.8848 10.0166C13.8848 10.4503 13.9017 10.5235 14.0594 10.8052C14.2509 11.1488 14.6509 11.4868 14.9832 11.5882C15.1241 11.6277 15.9015 11.6502 17.3154 11.6502H19.4335V12.2304C19.4335 12.6698 19.456 12.8388 19.5236 12.9346C19.6363 13.0979 19.8504 13.1824 20.025 13.1374C20.1884 13.0979 22.8022 10.3264 22.8473 10.1405C22.8698 10.0729 22.8698 9.96023 22.8473 9.88699C22.8247 9.78559 21.0841 7.87592 20.3179 7.10417C20.1208 6.90701 19.918 6.83941 19.7377 6.91827ZM21.1742 9.35747C21.484 9.68983 21.7431 9.98839 21.7431 10.0166C21.7431 10.0504 21.4446 10.3884 21.0841 10.777L20.4193 11.4812L20.3799 11.239C20.3517 11.0925 20.2841 10.9573 20.194 10.8728L20.0475 10.7489H17.7097C15.2029 10.7489 15.1015 10.7376 14.9156 10.4616C14.7579 10.2194 14.741 9.98839 14.8593 9.718C15.0508 9.2786 15.0283 9.28424 17.7041 9.28424H20.0475L20.194 9.15467C20.2954 9.07017 20.3517 8.95187 20.3743 8.78851C20.4081 8.55191 20.4137 8.54628 20.5038 8.64768C20.5602 8.70401 20.8587 9.01947 21.1742 9.35747Z" fill="white"/>
<path d="M6.81481 7.84781C4.68544 8.27593 2.9673 10.011 2.58424 12.1178C2.49974 12.591 2.51101 13.5599 2.61241 14.0725C2.92787 15.7175 4.03199 17.2103 5.4741 17.937C5.68253 18.044 6.07686 18.1961 6.34725 18.2806C6.80354 18.4214 6.92184 18.4327 7.85696 18.4327C8.99488 18.4383 9.24274 18.3932 10.0596 18.0158C11.5298 17.3398 12.634 16.0498 13.079 14.495C13.1916 14.1063 13.2085 13.9148 13.2085 13.1149C13.2085 12.315 13.1916 12.1234 13.079 11.7347C12.5157 9.76311 10.9214 8.26467 8.93855 7.84781C8.46535 7.74641 7.3218 7.74641 6.81481 7.84781ZM8.61745 8.74349C10.1441 9.01952 11.4622 10.0842 12.0143 11.4869C13.1916 14.4669 10.8595 17.7173 7.6598 17.5483C6.91621 17.5088 6.53315 17.4074 5.85716 17.0751C5.39523 16.8497 5.24877 16.7371 4.78684 16.2751C4.35872 15.847 4.19535 15.633 3.98692 15.2274C3.64329 14.557 3.4912 14.0162 3.45176 13.2839C3.38416 12.0389 3.77286 10.9855 4.64038 10.0842C5.73323 8.93502 7.10774 8.4731 8.61745 8.74349Z" fill="white"/>
<path d="M7.55841 9.86459C7.45702 9.97162 7.43448 10.0618 7.43448 10.3378V10.6758L7.19225 10.7715C6.87116 10.8955 6.60076 11.1602 6.43176 11.532C6.31347 11.7912 6.29657 11.8926 6.3191 12.2644C6.3698 13.115 6.83736 13.6051 7.65981 13.6614C8.17244 13.6952 8.26257 13.7177 8.39213 13.8586C8.54987 14.0332 8.5386 14.3261 8.36397 14.4951C8.2344 14.6303 8.2006 14.636 7.46828 14.636C6.65146 14.636 6.4712 14.681 6.3698 14.9007C6.27403 15.1035 6.29657 15.2331 6.4374 15.4021C6.5557 15.5373 6.61766 15.5542 7.00072 15.5823L7.43448 15.6105V15.9316C7.43448 16.1907 7.45702 16.2696 7.56405 16.371C7.74431 16.54 8.02034 16.5344 8.19497 16.3541C8.31327 16.2414 8.3358 16.1626 8.3358 15.8809C8.3358 15.5485 8.3358 15.5429 8.52733 15.4809C8.79773 15.3964 9.15262 15.0697 9.28782 14.7881C9.45682 14.4444 9.44555 13.9093 9.27092 13.5318C9.03432 13.0248 8.61183 12.777 7.97527 12.777C7.80064 12.777 7.58095 12.7375 7.49645 12.6925C7.16972 12.5291 7.11902 11.9714 7.40632 11.7179C7.54151 11.6053 7.60348 11.594 8.33017 11.594C9.03432 11.594 9.12446 11.5827 9.25965 11.4757C9.41739 11.3518 9.46245 11.0645 9.34979 10.8617C9.28219 10.7321 8.96673 10.6363 8.6062 10.6363H8.3358V10.3265C8.3358 10.0674 8.31327 9.98852 8.19497 9.87586C8.01471 9.68996 7.72741 9.68433 7.55841 9.86459Z" fill="white"/>
<path d="M15.9014 13.3572C15.6986 13.4699 13.1861 16.1738 13.1467 16.3203C13.1242 16.3935 13.1298 16.5118 13.158 16.585C13.2199 16.7371 15.5859 19.2834 15.845 19.4693C16.0591 19.627 16.245 19.5988 16.4365 19.3904C16.5492 19.2608 16.5605 19.1932 16.5605 18.6581V18.0722H18.6898C21.1685 18.0722 21.191 18.0666 21.6642 17.599C22.4359 16.8216 22.2613 15.5485 21.3037 14.9852L21.0389 14.8331L18.8025 14.8162L16.5605 14.7993V14.2078C16.5605 13.6276 16.5548 13.6107 16.3971 13.4473C16.2168 13.2727 16.0985 13.2502 15.9014 13.3572ZM15.6591 15.1993C15.6591 15.3683 15.6986 15.464 15.8 15.5654L15.9352 15.7063H18.3237H20.7122L20.9037 15.8358C21.0276 15.9203 21.1234 16.0499 21.1797 16.202C21.253 16.4104 21.253 16.4667 21.1797 16.6752C21.1347 16.7991 21.022 16.9625 20.9375 17.0244C20.7798 17.1371 20.7009 17.1427 18.3237 17.1709L15.8732 17.1991L15.7662 17.3343C15.6986 17.4131 15.6591 17.554 15.6591 17.6892C15.6591 17.8131 15.6366 17.9032 15.6141 17.892C15.5183 17.8525 14.2508 16.4667 14.2677 16.4217C14.2903 16.3484 15.569 14.9796 15.6197 14.9739C15.6422 14.9739 15.6591 15.0753 15.6591 15.1993Z" fill="white"/>
<path d="M6.53876 23.7393C6.39229 23.9252 6.38666 24.1618 6.52749 24.3308C6.63452 24.4604 6.66269 24.466 7.65977 24.4829C8.34703 24.4942 8.74135 24.4773 8.84839 24.4378C9.14132 24.3139 9.19765 23.8576 8.93852 23.6773C8.84275 23.6097 8.60052 23.5928 7.73864 23.5928H6.65142L6.53876 23.7393Z" fill="white"/>
</svg>
