<svg width="17" height="17" viewBox="0 0 17 17" fill="none" xmlns="http://www.w3.org/2000/svg">
<path fill-rule="evenodd" clip-rule="evenodd" d="M5.33744 0.817131C6.16605 0.778985 6.43025 0.770508 8.541 0.770508C10.6517 0.770508 10.9159 0.779691 11.7439 0.817131C12.5718 0.85457 13.1369 0.986669 13.6314 1.17811C14.1492 1.37378 14.6189 1.67966 15.0075 2.07524C15.403 2.46306 15.7082 2.93212 15.9032 3.45062C16.0953 3.94511 16.2267 4.51023 16.2649 5.33673C16.303 6.16676 16.3115 6.43096 16.3115 8.541C16.3115 10.6517 16.3023 10.9159 16.2649 11.7446C16.2274 12.5711 16.0953 13.1362 15.9032 13.6307C15.7082 14.1492 15.4025 14.6191 15.0075 15.0075C14.6189 15.403 14.1492 15.7082 13.6314 15.9032C13.1369 16.0953 12.5718 16.2267 11.7453 16.2649C10.9159 16.303 10.6517 16.3115 8.541 16.3115C6.43025 16.3115 6.16605 16.3023 5.33744 16.2649C4.51094 16.2274 3.94581 16.0953 3.45133 15.9032C2.93277 15.7082 2.46294 15.4025 2.07454 15.0075C1.67922 14.6194 1.3733 14.1498 1.17811 13.6314C0.986669 13.1369 0.855277 12.5718 0.817131 11.7453C0.778985 10.9152 0.770508 10.651 0.770508 8.541C0.770508 6.43025 0.779691 6.16605 0.817131 5.33814C0.85457 4.51023 0.986669 3.94511 1.17811 3.45062C1.37358 2.93217 1.67974 2.46258 2.07524 2.07454C2.46309 1.6793 2.93245 1.37339 3.45062 1.17811C3.94511 0.986669 4.51094 0.855277 5.33744 0.817131ZM11.681 2.21582C10.8616 2.17838 10.6157 2.17061 8.541 2.17061C6.46628 2.17061 6.22045 2.17838 5.40101 2.21582C4.64304 2.25043 4.23191 2.37688 3.95782 2.48355C3.59543 2.62483 3.33618 2.79225 3.06422 3.06422C2.80641 3.31503 2.608 3.62036 2.48355 3.95782C2.37688 4.23191 2.25043 4.64304 2.21582 5.40101C2.17838 6.22045 2.17061 6.46628 2.17061 8.541C2.17061 10.6157 2.17838 10.8616 2.21582 11.681C2.25043 12.439 2.37688 12.8501 2.48355 13.1242C2.60788 13.4611 2.80638 13.767 3.06422 14.0178C3.31499 14.2756 3.62087 14.4741 3.95782 14.5985C4.23191 14.7051 4.64304 14.8316 5.40101 14.8662C6.22045 14.9036 6.46557 14.9114 8.541 14.9114C10.6164 14.9114 10.8616 14.9036 11.681 14.8662C12.439 14.8316 12.8501 14.7051 13.1242 14.5985C13.4866 14.4572 13.7458 14.2898 14.0178 14.0178C14.2756 13.767 14.4741 13.4611 14.5985 13.1242C14.7051 12.8501 14.8316 12.439 14.8662 11.681C14.9036 10.8616 14.9114 10.6157 14.9114 8.541C14.9114 6.46628 14.9036 6.22045 14.8662 5.40101C14.8316 4.64304 14.7051 4.23191 14.5985 3.95782C14.4572 3.59543 14.2898 3.33618 14.0178 3.06422C13.767 2.80643 13.4616 2.60802 13.1242 2.48355C12.8501 2.37688 12.439 2.25043 11.681 2.21582ZM7.5485 10.9364C8.10279 11.1672 8.71999 11.1983 9.29469 11.0245C9.86939 10.8508 10.3659 10.4829 10.6995 9.98366C11.0331 9.48446 11.183 8.88493 11.1237 8.28747C11.0643 7.69002 10.7994 7.1317 10.3741 6.70787C10.103 6.43695 9.77524 6.2295 9.41436 6.10046C9.05347 5.97143 8.66846 5.92401 8.28704 5.96163C7.90563 5.99925 7.5373 6.12097 7.20857 6.31802C6.87985 6.51508 6.5989 6.78257 6.38596 7.10123C6.17302 7.4199 6.03338 7.78181 5.9771 8.16092C5.92082 8.54003 5.94929 8.9269 6.06047 9.29369C6.17166 9.66047 6.36278 9.99804 6.62008 10.2821C6.87738 10.5662 7.19446 10.7896 7.5485 10.9364ZM5.71678 5.71678C6.08766 5.3459 6.52796 5.0517 7.01254 4.85098C7.49712 4.65026 8.01649 4.54695 8.541 4.54695C9.06551 4.54695 9.58488 4.65026 10.0695 4.85098C10.554 5.0517 10.9943 5.3459 11.3652 5.71678C11.7361 6.08766 12.0303 6.52796 12.231 7.01254C12.4317 7.49712 12.5351 8.01649 12.5351 8.541C12.5351 9.06551 12.4317 9.58488 12.231 10.0695C12.0303 10.554 11.7361 10.9943 11.3652 11.3652C10.6162 12.1143 9.60029 12.5351 8.541 12.5351C7.48171 12.5351 6.46581 12.1143 5.71678 11.3652C4.96775 10.6162 4.54695 9.60029 4.54695 8.541C4.54695 7.48171 4.96775 6.46581 5.71678 5.71678ZM13.4209 5.14176C13.5128 5.05506 13.5864 4.95081 13.6372 4.83516C13.6881 4.71952 13.7153 4.59484 13.7171 4.46851C13.719 4.34217 13.6955 4.21675 13.648 4.09968C13.6005 3.9826 13.53 3.87624 13.4406 3.7869C13.3513 3.69756 13.2449 3.62705 13.1278 3.57955C13.0108 3.53205 12.8853 3.50853 12.759 3.51037C12.6327 3.51221 12.508 3.53938 12.3924 3.59028C12.2767 3.64117 12.1725 3.71474 12.0858 3.80665C11.9171 3.98539 11.8248 4.22281 11.8284 4.46851C11.832 4.7142 11.9312 4.94883 12.1049 5.12258C12.2787 5.29633 12.5133 5.39552 12.759 5.39911C13.0047 5.40269 13.2421 5.31037 13.4209 5.14176Z" fill="white"/>
</svg>
