<svg width="17" height="12" viewBox="0 0 17 12" fill="none" xmlns="http://www.w3.org/2000/svg">
<path d="M16.1499 2.12165C16.0619 1.78179 15.8905 1.4741 15.6539 1.23129C15.4107 0.981014 15.1125 0.801984 14.7876 0.711101C13.5717 0.364072 8.70029 0.364072 8.70029 0.364072C6.66944 0.339053 4.63909 0.449094 2.6207 0.693574C2.2958 0.791172 1.99821 0.974202 1.7544 1.22639C1.51484 1.47597 1.34133 1.78373 1.25068 2.12095C1.03294 3.3911 0.927145 4.68079 0.934726 5.97261C0.926956 7.26328 1.03249 8.55254 1.25068 9.82428C1.33938 10.1601 1.51225 10.4665 1.75246 10.7139C1.99267 10.9614 2.29179 11.1402 2.6207 11.2348C3.8528 11.5812 8.70029 11.5812 8.70029 11.5812C10.7337 11.6062 12.7667 11.4962 14.7876 11.2517C15.1125 11.1608 15.4107 10.9817 15.6539 10.7315C15.8904 10.4887 16.0616 10.181 16.1492 9.8411C16.3727 8.57144 16.4813 7.28122 16.4736 5.98874C16.4904 4.69078 16.3819 3.39448 16.1499 2.12095V2.12165ZM7.15158 8.37307V3.57286L11.2046 5.97331L7.15158 8.37307Z" fill="white"/>
</svg>
