<svg width="21" height="17" viewBox="0 0 21 17" fill="none" xmlns="http://www.w3.org/2000/svg">
<path d="M9.73357 0.94424C6.28288 1.13473 2.9084 2.57706 0.524486 4.87388C0.13261 5.24943 0.0346408 5.38006 0.00742716 5.5379C-0.0524428 5.92433 0.257792 6.29443 0.644225 6.29443C0.883705 6.29443 0.99256 6.22368 1.44431 5.79915C3.01725 4.31328 5.05283 3.20297 7.22447 2.64781C9.21651 2.1362 11.4099 2.10898 13.4618 2.57161C15.628 3.05602 17.8704 4.23164 19.4488 5.70118C20.0258 6.24001 20.1074 6.29443 20.3904 6.29443C20.5918 6.29443 20.6626 6.26178 20.8149 6.10938C20.9728 5.95154 21 5.88623 21 5.66852C21 5.42904 20.9782 5.39094 20.6353 5.03172C19.8788 4.24253 18.5018 3.23562 17.3479 2.62604C15.0402 1.40143 12.3025 0.797286 9.73357 0.94424Z" fill="white"/>
<path d="M9.05321 4.85751C7.13737 5.11876 5.18888 5.95694 3.71934 7.16523C3.04989 7.71494 2.77775 8.00885 2.73965 8.21023C2.69611 8.44971 2.81585 8.75994 3.00635 8.88513C3.20229 9.01031 3.55606 9.00487 3.71934 8.87424C3.7901 8.81437 4.07312 8.57489 4.35614 8.34085C5.77669 7.13257 7.33875 6.42502 9.21105 6.15288C10.0383 6.03314 11.4861 6.07124 12.3188 6.23996C13.968 6.56653 15.5192 7.33939 16.7928 8.46059C17.4677 9.05929 17.5656 9.10283 17.9194 8.93411C18.2405 8.78171 18.3711 8.37351 18.2024 8.04695C18.1153 7.87822 17.4404 7.27408 16.8907 6.86588C15.4375 5.79366 13.6741 5.08611 11.8725 4.85207C11.1214 4.7541 9.79342 4.7541 9.05321 4.85751Z" fill="white"/>
<path d="M9.46145 8.66195C8.079 8.87966 6.74553 9.52735 5.80939 10.4254C5.45561 10.7683 5.43384 10.8009 5.43384 11.0295C5.43384 11.3779 5.59712 11.601 5.91824 11.6935C6.14683 11.7589 6.35366 11.6772 6.68566 11.3779C8.41645 9.83758 10.8167 9.46748 12.8686 10.4254C13.3857 10.6703 13.9027 11.0078 14.2565 11.3398C14.6756 11.7316 15.0239 11.8078 15.3287 11.5793C15.4974 11.4541 15.6117 11.1112 15.5519 10.8989C15.5246 10.8009 15.3559 10.5887 15.1545 10.3927C13.7285 9.03206 11.4753 8.34628 9.46145 8.66195Z" fill="white"/>
<path d="M10.109 12.4447C8.7538 12.6842 7.91018 14.072 8.31839 15.3946C8.64495 16.4505 9.78792 17.1635 10.8493 16.9676C11.7419 16.8043 12.4168 16.2165 12.678 15.3892C13.108 13.9958 12.1392 12.559 10.686 12.4283C10.5064 12.412 10.2451 12.4175 10.109 12.4447ZM11.0071 13.8761C11.4697 14.1319 11.6112 14.7959 11.301 15.264C10.9363 15.8137 10.0546 15.8137 9.69539 15.264C9.31985 14.698 9.58654 13.9469 10.2288 13.7564C10.4683 13.6856 10.7404 13.7292 11.0071 13.8761Z" fill="white"/>
</svg>
