<svg width="1920" height="607" viewBox="0 0 1920 607" fill="none" xmlns="http://www.w3.org/2000/svg">
<rect width="1920" height="607" fill="#FBF5FF"/>
<rect x="903" width="1017" height="607" fill="url(#paint0_linear_1008_98)"/>
<mask id="mask0_1008_98" style="mask-type:alpha" maskUnits="userSpaceOnUse" x="0" y="0" width="1920" height="607">
<rect width="1920" height="607" fill="#FBF5FF"/>
</mask>
<g mask="url(#mask0_1008_98)">
<path d="M982.811 9.68247C1000.65 -9.05483 1024.3 -20 1052.1 -20C1106.24 -20 1142.14 19.5326 1149.01 78.7552C1151.24 97.9876 1151.21 125.102 1151.19 156.508C1151.19 159.729 1151.19 162.995 1151.19 166.302V283.954H1076.73V196.935C1076.73 196.935 1076.58 122.459 1076.12 108.54C1074.12 47.918 1038.23 9.82602 982.803 9.78508C966.079 27.4543 957.118 49.058 955.797 82.0906C955.615 86.6979 955.661 103.029 955.721 124.552C955.752 135.704 955.787 148.25 955.797 161.281C955.852 218.001 955.797 283.967 955.797 283.967H881.337V150.046C881.337 145.457 881.253 140.829 881.17 136.183C881.001 126.837 880.83 117.419 881.337 108.094C882.178 92.5479 884.868 77.2655 892.122 63.0685C908.727 30.544 942.75 9.60274 979.021 9.60274C980.288 9.60274 981.556 9.63203 982.811 9.68055V9.68247Z" fill="white" fill-opacity="0.06"/>
<path d="M1444.66 163.078C1445.17 153.753 1445 144.334 1444.83 134.989C1444.75 130.343 1444.66 125.715 1444.66 121.126V-12.7954H1370.2C1370.2 -12.7954 1370.15 53.1711 1370.2 109.89C1370.21 122.922 1370.25 135.467 1370.28 146.618C1370.34 168.143 1370.39 184.473 1370.2 189.081C1368.88 222.114 1359.92 243.717 1343.2 261.387C1287.77 261.348 1251.88 223.253 1249.88 162.632C1249.42 148.713 1249.23 114.172 1249.23 74.1668V-12.8522L1174.83 -12.7843V104.868C1174.83 108.175 1174.82 111.441 1174.82 114.662C1174.8 146.068 1174.78 173.182 1177.01 192.415C1183.86 251.638 1219.76 291.171 1273.9 291.171C1301.7 291.171 1325.36 280.225 1343.19 261.488C1344.45 261.536 1345.71 261.565 1346.98 261.565C1383.25 261.565 1417.27 240.625 1433.88 208.1C1441.13 193.902 1443.82 178.621 1444.66 163.075L1444.66 163.078Z" fill="white" fill-opacity="0.06"/>
<path d="M1313.81 368.682C1331.65 349.945 1355.3 339 1383.1 339C1437.24 339 1473.14 378.533 1480.01 437.755C1482.24 456.988 1482.21 484.102 1482.19 515.508C1482.19 518.729 1482.19 521.995 1482.19 525.302V642.954H1407.73V555.935C1407.73 555.935 1407.58 481.459 1407.12 467.54C1405.12 406.918 1369.23 368.826 1313.8 368.785C1297.08 386.454 1288.12 408.058 1286.8 441.091C1286.62 445.698 1286.66 462.029 1286.72 483.552C1286.75 494.704 1286.79 507.25 1286.8 520.281C1286.85 577.001 1286.8 642.967 1286.8 642.967H1212.34V509.046C1212.34 504.457 1212.25 499.829 1212.17 495.183C1212 485.837 1211.83 476.419 1212.34 467.094C1213.18 451.548 1215.87 436.265 1223.12 422.068C1239.73 389.544 1273.75 368.603 1310.02 368.603C1311.29 368.603 1312.56 368.632 1313.81 368.681V368.682Z" fill="white" fill-opacity="0.06"/>
<path d="M1775.66 522.078C1776.17 512.753 1776 503.334 1775.83 493.989C1775.75 489.343 1775.66 484.715 1775.66 480.126V346.205H1701.2C1701.2 346.205 1701.15 412.171 1701.2 468.89C1701.21 481.922 1701.25 494.467 1701.28 505.618C1701.34 527.143 1701.39 543.473 1701.2 548.081C1699.88 581.114 1690.92 602.717 1674.2 620.387C1618.77 620.348 1582.88 582.253 1580.88 521.632C1580.42 507.713 1580.23 473.172 1580.23 433.167V346.148L1505.83 346.216V463.868C1505.83 467.175 1505.82 470.441 1505.82 473.662C1505.8 505.068 1505.78 532.182 1508.01 551.415C1514.86 610.638 1550.76 650.171 1604.9 650.171C1632.7 650.171 1656.36 639.225 1674.19 620.488C1675.45 620.536 1676.71 620.565 1677.98 620.565C1714.25 620.565 1748.27 599.625 1764.88 567.1C1772.13 552.902 1774.82 537.621 1775.66 522.075L1775.66 522.078Z" fill="white" fill-opacity="0.06"/>
</g>
<defs>
<linearGradient id="paint0_linear_1008_98" x1="793.438" y1="669.382" x2="2068.94" y2="432.043" gradientUnits="userSpaceOnUse">
<stop stop-color="#2F0549"/>
<stop offset="1" stop-color="#7F09CC"/>
</linearGradient>
</defs>
</svg>
