<svg width="57" height="33" viewBox="0 0 57 33" fill="none" xmlns="http://www.w3.org/2000/svg">
<path d="M10.2894 3.0966C12.0919 1.14185 14.4828 0 17.2917 0C22.7638 0 26.3919 4.12421 27.086 10.3026C27.3111 12.309 27.309 15.1377 27.3067 18.4141C27.3063 18.7501 27.3063 19.0908 27.3063 19.4358V31.7098H19.7811V22.6316C19.7811 22.6316 19.7658 14.8619 19.7198 13.4098C19.5178 7.08549 15.8908 3.11158 10.2887 3.1073C8.59846 4.95063 7.69283 7.20442 7.55927 10.6505C7.54091 11.1312 7.54553 12.8349 7.55162 15.0803C7.55478 16.2436 7.55832 17.5525 7.55927 18.912C7.56485 24.8292 7.55927 31.7111 7.55927 31.7111H0.0340695V17.7399C0.0340695 17.2611 0.0256117 16.7784 0.0171343 16.2937C6.72882e-05 15.3187 -0.017135 14.3362 0.0340695 13.3633C0.119092 11.7415 0.390883 10.1471 1.12402 8.66605C2.80216 5.27296 6.24067 3.08828 9.9064 3.08828C10.0345 3.08828 10.1626 3.09134 10.2894 3.0964V3.0966Z" fill="#820AD1"/>
<path d="M56.9661 19.0995C57.0173 18.1266 57.0001 17.144 56.9831 16.1691C56.9745 15.6844 56.9661 15.2016 56.9661 14.7229V0.751601H49.441C49.441 0.751601 49.4354 7.6335 49.441 13.5507C49.4418 14.9102 49.4454 16.2189 49.4485 17.3823C49.4546 19.6278 49.4593 21.3315 49.441 21.8121C49.3074 25.2584 48.4017 27.5121 46.7116 29.3555C41.1095 29.3514 37.4826 25.3772 37.2805 19.0529C37.2345 17.6008 37.2151 13.9973 37.2151 9.82386V0.745667L29.6955 0.752758V13.0267C29.6955 13.3718 29.6951 13.7124 29.6951 14.0485C29.6927 17.3249 29.6907 20.1535 29.9158 22.16C30.6084 28.3384 34.2365 32.4626 39.7086 32.4626C42.5176 32.4626 44.9086 31.3207 46.711 29.366C46.8377 29.371 46.9658 29.3741 47.0938 29.3741C50.7595 29.3741 54.1981 27.1894 55.8762 23.7964C56.6094 22.3151 56.8811 20.7209 56.9661 19.0991L56.9661 19.0995Z" fill="#820AD1"/>
</svg>
