<svg width="64" height="35" viewBox="0 0 64 35" fill="none" xmlns="http://www.w3.org/2000/svg">
<path d="M11.4515 3.33864C13.4576 1.2311 16.1186 0 19.2447 0C25.3349 0 29.3727 4.44657 30.1452 11.1078C30.3957 13.2711 30.3934 16.3209 30.3909 19.8534C30.3904 20.2157 30.3904 20.583 30.3904 20.955V34.1884H22.0153V24.4006C22.0153 24.4006 21.9982 16.0236 21.947 14.458C21.7223 7.63932 17.6855 3.35479 11.4507 3.35018C9.5696 5.33759 8.56168 7.76754 8.41304 11.483C8.3926 12.0012 8.39775 13.8381 8.40453 16.259C8.40804 17.5133 8.41198 18.9245 8.41304 20.3902C8.41924 26.77 8.41304 34.1898 8.41304 34.1898H0.0379175V19.1265C0.0379175 18.6103 0.0285043 18.0898 0.0190695 17.5672C7.48879e-05 16.516 -0.0190703 15.4567 0.0379175 14.4078C0.132542 12.6592 0.43503 10.9403 1.25097 9.34342C3.11864 5.68512 6.94552 3.32967 11.0253 3.32967C11.1678 3.32967 11.3104 3.33297 11.4515 3.33843V3.33864Z" fill="white"/>
<path d="M63.3999 20.5924C63.4569 19.5435 63.4378 18.484 63.4189 17.4329C63.4093 16.9103 63.3999 16.3898 63.3999 15.8737V0.810353H55.025C55.025 0.810353 55.0187 8.23017 55.025 14.6099C55.0259 16.0756 55.0299 17.4866 55.0334 18.741C55.0402 21.162 55.0453 22.9988 55.025 23.5171C54.8763 27.2327 53.8683 29.6625 51.9873 31.65C45.7525 31.6456 41.7159 27.3607 41.4911 20.5422C41.4399 18.9766 41.4182 15.0914 41.4182 10.5917V0.803955L33.0493 0.811601V14.045C33.0493 14.417 33.0489 14.7842 33.0489 15.1466C33.0462 18.6791 33.0441 21.7288 33.2945 23.8922C34.0654 30.5534 38.1032 35 44.1933 35C47.3196 35 49.9806 33.7689 51.9867 31.6613C52.1277 31.6668 52.2702 31.6701 52.4127 31.6701C56.4924 31.6701 60.3193 29.3147 62.187 25.6564C63.003 24.0594 63.3054 22.3406 63.4 20.592L63.3999 20.5924Z" fill="white"/>
</svg>
